<svg width="32" height="32" fill="none" xmlns="http://www.w3.org/2000/svg"><path d="M19.123 17.939c-.392-.388-.881-.388-1.271 0-.297.294-.594.589-.886.888-.08.083-.148.1-.245.045-.192-.105-.397-.19-.582-.304-.861-.542-1.583-1.239-2.222-2.023-.317-.39-.6-.806-.797-1.276-.04-.095-.032-.157.045-.235.297-.287.587-.581.879-.876.407-.41.407-.89-.003-1.301-.232-.235-.464-.464-.696-.7-.24-.239-.477-.481-.72-.718-.391-.383-.88-.383-1.27.002-.3.295-.587.597-.892.886a1.447 1.447 0 00-.454.977c-.048.622.105 1.208.32 1.78.439 1.184 1.108 2.235 1.92 3.2a11.882 11.882 0 003.935 3.078c.69.335 1.403.592 2.18.634.534.03.999-.105 1.37-.522.256-.284.543-.544.812-.816.4-.405.402-.894.005-1.294-.474-.477-.951-.951-1.428-1.425zm-.479-1.991l.922-.157a4.119 4.119 0 00-1.151-2.222 4.095 4.095 0 00-2.348-1.171l-.13.926c.692.097 1.322.41 1.818.906.47.47.777 1.064.89 1.718zm1.444-4.005A6.795 6.795 0 0016.192 10l-.13.926a5.891 5.891 0 013.367 1.678 5.886 5.886 0 011.65 3.184l.922-.157a6.845 6.845 0 00-1.913-3.688z" fill="#1F6BFF"/><circle cx="16" cy="16" r="15.5" stroke="#1F6BFF"/></svg>