<svg width="165" height="221" fill="none" xmlns="http://www.w3.org/2000/svg"><path d="M9.955 19.91c5.498 0 9.955-4.457 9.955-9.955S15.453 0 9.955 0 0 4.457 0 9.955s4.457 9.955 9.955 9.955zM52.84 9.762a9.418 9.418 0 11-18.835-.001 9.418 9.418 0 0118.835 0zm30.409-.007a8.825 8.825 0 01-8.826 8.826 8.825 8.825 0 01-8.825-8.826A8.825 8.825 0 0174.423.93a8.825 8.825 0 018.826 8.825zm29.236-.177a8.108 8.108 0 11-16.215 0 8.108 8.108 0 0116.215 0zm27.735.378a7.66 7.66 0 01-7.661 7.66 7.66 7.66 0 01-7.661-7.66 7.66 7.66 0 017.661-7.661 7.66 7.66 0 017.661 7.66zm25.441.004a7.186 7.186 0 01-7.184 7.183 7.186 7.186 0 01-7.184-7.184 7.186 7.186 0 017.184-7.184 7.183 7.183 0 017.184 7.184zM9.955 48.532c5.498 0 9.955-4.458 9.955-9.956 0-5.498-4.457-9.955-9.955-9.955S0 33.078 0 38.576s4.457 9.956 9.955 9.956zM52.84 38.383a9.419 9.419 0 11-9.418-9.418c5.2-.005 9.418 4.217 9.418 9.418zm30.409.005a8.825 8.825 0 01-8.826 8.826 8.825 8.825 0 01-8.825-8.826 8.825 8.825 0 018.825-8.825 8.825 8.825 0 018.826 8.825zm29.236-.198a8.108 8.108 0 11-16.216 0 8.107 8.107 0 1116.216 0zm27.735.385a7.66 7.66 0 01-7.661 7.66 7.66 7.66 0 01-7.661-7.66 7.66 7.66 0 017.661-7.66 7.663 7.663 0 017.661 7.66zm25.441.007a7.186 7.186 0 01-7.184 7.184 7.186 7.186 0 01-7.184-7.184 7.186 7.186 0 017.184-7.184 7.186 7.186 0 017.184 7.184zM9.955 77.155c5.498 0 9.955-4.457 9.955-9.956 0-5.498-4.457-9.955-9.955-9.955S0 61.701 0 67.2s4.457 9.956 9.955 9.956zM52.84 67.004a9.419 9.419 0 11-18.837-.001 9.419 9.419 0 0118.837.001zm30.409.006a8.825 8.825 0 01-8.826 8.825 8.825 8.825 0 01-8.825-8.826 8.825 8.825 0 018.825-8.825 8.825 8.825 0 018.826 8.825zm29.236-.19a8.108 8.108 0 11-16.216 0 8.108 8.108 0 1116.216 0zm27.735.378a7.66 7.66 0 01-7.661 7.661 7.66 7.66 0 01-7.661-7.661 7.66 7.66 0 017.661-7.66 7.66 7.66 0 017.661 7.66zm25.441.004a7.186 7.186 0 01-7.184 7.184 7.186 7.186 0 01-7.184-7.184 7.186 7.186 0 017.184-7.184 7.186 7.186 0 017.184 7.184zM9.955 105.785c5.498 0 9.955-4.457 9.955-9.955s-4.457-9.955-9.955-9.955S0 90.332 0 95.83s4.457 9.955 9.955 9.955zM52.84 95.637a9.419 9.419 0 11-18.837-.001 9.419 9.419 0 0118.837 0zm30.409-.007a8.825 8.825 0 01-8.826 8.826 8.825 8.825 0 01-8.825-8.826 8.825 8.825 0 018.825-8.825 8.825 8.825 0 018.826 8.825zm29.236-.186a8.107 8.107 0 01-8.108 8.107 8.107 8.107 0 01-8.108-8.107 8.107 8.107 0 1116.216 0zm27.735.385a7.66 7.66 0 01-7.661 7.661 7.66 7.66 0 01-7.661-7.661 7.66 7.66 0 017.661-7.661 7.66 7.66 0 017.661 7.66zm25.441-.004a7.186 7.186 0 01-7.184 7.184 7.186 7.186 0 01-7.184-7.184 7.186 7.186 0 017.184-7.184 7.183 7.183 0 017.184 7.184zM9.955 134.407c5.498 0 9.955-4.458 9.955-9.956 0-5.498-4.457-9.955-9.955-9.955S0 118.953 0 124.451s4.457 9.956 9.955 9.956zm42.885-10.161a9.419 9.419 0 11-18.837-.001 9.419 9.419 0 0118.837.001zm30.409.007a8.825 8.825 0 01-8.826 8.826 8.825 8.825 0 01-8.825-8.826 8.825 8.825 0 1117.65 0zm29.236-.188a8.108 8.108 0 11-16.216 0 8.108 8.108 0 0116.216 0zm27.735.385a7.66 7.66 0 01-7.661 7.661 7.66 7.66 0 01-7.661-7.661 7.66 7.66 0 017.661-7.661 7.66 7.66 0 017.661 7.661zm25.441-.006a7.186 7.186 0 01-7.184 7.184 7.186 7.186 0 01-7.184-7.184 7.186 7.186 0 017.184-7.184 7.186 7.186 0 017.184 7.184zM19.91 153.072c0 5.498-4.458 9.956-9.955 9.956S0 158.57 0 153.072c0-5.497 4.458-9.955 9.955-9.955s9.955 4.453 9.955 9.955zm32.93-.195a9.419 9.419 0 11-18.837-.001 9.419 9.419 0 0118.837.001zm30.409-.003a8.825 8.825 0 01-8.826 8.826 8.825 8.825 0 01-8.825-8.826 8.825 8.825 0 018.825-8.825 8.825 8.825 0 018.826 8.825zm29.236-.178a8.107 8.107 0 01-8.108 8.107 8.107 8.107 0 01-8.108-8.107 8.107 8.107 0 018.108-8.108 8.107 8.107 0 018.108 8.108zm27.735.375a7.66 7.66 0 01-7.661 7.661 7.66 7.66 0 01-7.661-7.661 7.66 7.66 0 017.661-7.661 7.66 7.66 0 017.661 7.661zm25.441.006a7.186 7.186 0 01-7.184 7.184 7.186 7.186 0 01-7.184-7.184 7.186 7.186 0 017.184-7.184 7.186 7.186 0 017.184 7.184zM19.91 181.693c0 5.498-4.458 9.956-9.955 9.956S0 187.191 0 181.693c0-5.497 4.458-9.955 9.955-9.955s9.955 4.458 9.955 9.955zm32.93-.195a9.419 9.419 0 11-18.837-.001 9.419 9.419 0 0118.837.001zm30.409.007a8.825 8.825 0 01-8.826 8.826 8.825 8.825 0 01-8.825-8.826 8.825 8.825 0 018.825-8.825 8.825 8.825 0 018.826 8.825zm29.236-.198a8.108 8.108 0 11-16.216 0 8.108 8.108 0 0116.216 0zm27.735.387a7.66 7.66 0 01-7.661 7.661 7.66 7.66 0 01-7.661-7.661 7.66 7.66 0 017.661-7.661 7.66 7.66 0 017.661 7.661zm25.441.002a7.186 7.186 0 01-7.184 7.184 7.186 7.186 0 01-7.184-7.184 7.186 7.186 0 017.184-7.184 7.186 7.186 0 017.184 7.184zM19.91 210.317c0 5.497-4.458 9.955-9.955 9.955S0 215.814 0 210.317c0-5.498 4.458-9.956 9.955-9.956s9.955 4.458 9.955 9.956zm32.93-.196a9.419 9.419 0 11-18.837-.001 9.419 9.419 0 0118.837.001zm30.409.005a8.825 8.825 0 01-8.826 8.826 8.825 8.825 0 01-8.825-8.826 8.825 8.825 0 1117.65 0zm29.236-.186a8.107 8.107 0 01-8.108 8.107 8.108 8.108 0 118.108-8.107zm27.735.375a7.66 7.66 0 01-7.661 7.661 7.66 7.66 0 01-7.661-7.661 7.66 7.66 0 017.661-7.661 7.66 7.66 0 017.661 7.661zm25.441.004a7.186 7.186 0 01-7.184 7.184 7.186 7.186 0 01-7.184-7.184 7.186 7.186 0 017.184-7.184 7.186 7.186 0 017.184 7.184z" fill="#BADAF4"/></svg>